<?xml version="1.0" encoding="UTF-8"?>
<svg version="1.1" viewBox="0 0 2048 2048" width="1280" height="1280" xmlns="http://www.w3.org/2000/svg">
<path transform="translate(205)" d="m0 0h1638l36 7 27 9 16 7 21 12 14 10 11 9 10 9 14 14 11 14 9 13 10 17 10 21 8 24 6 28 2 13v1633l-5 29-5 19-7 20-10 21-11 18-12 16-12 14-13 13-11 9-15 11-15 9-16 8-11 5-24 8-27 6-13 2h-1634l-32-6-21-6-16-6-21-10-19-12-13-10-14-12-13-13-9-11-10-13-12-20-11-23-8-24-5-22-3-18v-1638l6-31 8-26 8-18 7-14 12-19 13-16 9-10 14-14 14-11 14-10 21-12 21-9 22-7 24-5z" fill="#007DB8"/>
<path transform="translate(1394,747)" d="m0 0h22l33 2 31 4 26 5 26 7 25 9 20 9 23 12 19 12 12 9 10 8 10 9 8 7 9 9 7 8 13 16 12 17 12 20 11 21 11 26 11 34 8 33 6 37 3 30 1 18 1 556v54l-1 44-302 1-2-2-1-540-2-29-5-32-6-23-7-20-10-21-10-15-8-10-14-14-16-11-17-9-20-7-19-4-17-2h-29l-23 3-23 5-22 8-17 9-17 12-13 12-9 10-11 16-9 16-8 18-7 21-6 27-3 22-2 33-1 526-290 1-3-1v-985h293l1 5-1 125h2l2-5 12-17 8-10 11-13 12-13 10-10 8-7 13-11 16-12 15-10 19-11 21-11 28-11 26-8 27-6 27-4z" fill="#FDFDFD"/>
<path transform="translate(314,778)" d="m0 0h305v985l-304 1-1-1-1-25v-947z" fill="#FDFDFD"/>
<path transform="translate(446,285)" d="m0 0h38l23 4 20 6 17 7 19 11 14 10 11 10 8 7 12 14 12 18 10 19 6 15 6 23 3 19 1 23-2 22-4 19-5 17-8 19-8 14-11 16-11 13-13 13-17 13-20 12-21 9-21 6-25 4h-30l-20-3-23-6-20-8-15-8-16-11-14-12-12-12-11-14-10-15-8-15-8-21-5-19-3-18-1-13v-15l2-19 5-23 6-18 11-23 10-15 7-9 9-10 13-13 10-8 18-12 16-8 15-6 21-6z" fill="#FDFDFD"/>
</svg>
